<svg width="16" height="17" viewBox="0 0 16 17" fill="none" xmlns="http://www.w3.org/2000/svg">
<path d="M15 7.46532H9V1.44932C9 1.1834 8.89464 0.928366 8.70711 0.74033C8.51957 0.552293 8.26522 0.446655 8 0.446655C7.73478 0.446655 7.48043 0.552293 7.29289 0.74033C7.10536 0.928366 7 1.1834 7 1.44932V7.46532H1C0.734784 7.46532 0.48043 7.57096 0.292893 7.759C0.105357 7.94703 0 8.20207 0 8.46799C0 8.73391 0.105357 8.98894 0.292893 9.17698C0.48043 9.36502 0.734784 9.47066 1 9.47066H7V15.4867C7 15.7526 7.10536 16.0076 7.29289 16.1956C7.48043 16.3837 7.73478 16.4893 8 16.4893C8.26522 16.4893 8.51957 16.3837 8.70711 16.1956C8.89464 16.0076 9 15.7526 9 15.4867V9.47066H15C15.2652 9.47066 15.5196 9.36502 15.7071 9.17698C15.8946 8.98894 16 8.73391 16 8.46799C16 8.20207 15.8946 7.94703 15.7071 7.759C15.5196 7.57096 15.2652 7.46532 15 7.46532Z" fill="white"/>
</svg>
