<svg width="29" height="29" viewBox="0 0 29 29" fill="none" xmlns="http://www.w3.org/2000/svg">
<path d="M4 8L1 12V26C1 26.5304 1.21071 27.0391 1.58579 27.4142C1.96086 27.7893 2.46957 28 3 28H17C17.5304 28 18.0391 27.7893 18.4142 27.4142C18.7893 27.0391 19 26.5304 19 26V12L16 8H4Z" stroke="black" stroke-width="2" stroke-linecap="round" stroke-linejoin="round"/>
<path d="M1 12H19" stroke="black" stroke-width="2" stroke-linecap="round" stroke-linejoin="round"/>
<path d="M14 16C14 17.0609 13.5786 18.0783 12.8284 18.8284C12.0783 19.5786 11.0609 20 10 20C8.93913 20 7.92172 19.5786 7.17157 18.8284C6.42143 18.0783 6 17.0609 6 16" stroke="black" stroke-width="2" stroke-linecap="round" stroke-linejoin="round"/>
<circle cx="21" cy="8" r="8" fill="#FE7777"/>
<path d="M19.408 10.416C20.0853 9.872 20.616 9.42667 21 9.08C21.384 8.728 21.7067 8.36267 21.968 7.984C22.2347 7.6 22.368 7.224 22.368 6.856C22.368 6.50933 22.2827 6.23733 22.112 6.04C21.9467 5.83733 21.6773 5.736 21.304 5.736C20.9413 5.736 20.6587 5.85067 20.456 6.08C20.2587 6.304 20.152 6.60533 20.136 6.984H19.432C19.4533 6.38667 19.6347 5.92533 19.976 5.6C20.3173 5.27467 20.7573 5.112 21.296 5.112C21.8453 5.112 22.28 5.264 22.6 5.568C22.9253 5.872 23.088 6.29067 23.088 6.824C23.088 7.26667 22.9547 7.69867 22.688 8.12C22.4267 8.536 22.128 8.904 21.792 9.224C21.456 9.53867 21.0267 9.90667 20.504 10.328H23.256V10.936H19.408V10.416Z" fill="white"/>
</svg>
