<svg width="144" height="96" viewBox="0 0 144 96" fill="none" xmlns="http://www.w3.org/2000/svg">
<g clip-path="url(#clip0_305_3164)">
<path d="M53.0642 81.6929C52.4322 86.6507 50.1082 91.1866 47.629 95.5559C47.547 95.7047 47.4627 95.8512 47.3763 96H21.6084C21.0873 95.8646 20.5729 95.7158 20.0606 95.5559C17.1502 94.6688 14.4026 93.3154 11.9245 91.5485C2.4445 84.7102 -1.20339 71.7885 0.444281 60.2101C1.46881 53.0166 4.62209 45.6721 10.7624 41.7978C14.0045 39.7486 18.169 39.0825 21.9011 39.844C21.9988 39.8618 22.0964 39.884 22.1961 39.904C25.4071 40.6278 28.2677 42.4261 29.8954 45.3235C32.8225 50.5299 31.0795 56.9797 29.6404 62.7744C28.2056 68.5692 27.4272 75.5052 31.5918 79.7791C30.2169 75.7272 31.574 70.8938 34.8582 68.154C37.3396 66.087 40.7946 65.3122 43.9457 65.9538C44.2473 66.0182 44.5445 66.0914 44.8372 66.1803C45.5446 66.3877 46.2267 66.6736 46.8706 67.0328C51.7824 69.7792 53.7716 76.1046 53.0642 81.6929Z" fill="#F2994A"/>
<path d="M37.7855 95.5559C38.4994 95.7224 39.2157 95.869 39.9364 96H36.0402C35.5301 95.8623 35.0223 95.7158 34.519 95.5559C33.4124 95.2096 32.3229 94.8121 31.2503 94.3637C26.9483 92.5564 22.9856 89.8433 19.9874 86.2332C18.5212 84.4842 17.3238 82.5258 16.4349 80.4229C15.4711 78.0461 14.8585 75.5412 14.6166 72.9874C14.0733 67.7477 14.6277 62.3637 15.6632 57.2172C16.732 51.8832 18.4571 46.7024 20.7991 41.7934C21.0807 41.205 21.372 40.6204 21.6728 40.0394C21.6935 39.9916 21.7248 39.9491 21.7644 39.9152C21.804 39.8814 21.8507 39.857 21.9012 39.844C22.0035 39.8241 22.1096 39.8457 22.1961 39.9039C22.3 39.9636 22.377 40.0609 22.4112 40.1758C22.4455 40.2906 22.4344 40.4143 22.3802 40.5212C19.9654 45.236 18.1349 50.2285 16.9295 55.3877C15.7498 60.421 15.0801 65.6873 15.3084 70.8627C15.5257 75.6983 16.7876 80.454 19.6504 84.4082C22.2649 88.0183 25.875 90.8646 29.8688 92.8028C32.3967 94.0138 35.0521 94.9372 37.7855 95.5559Z" fill="white"/>
<path d="M46.3363 96H45.1876C45.0589 95.8534 44.9347 95.7047 44.8128 95.5559C42.1963 92.373 40.4238 88.5809 39.6592 84.5303C38.7306 79.4754 39.453 74.2555 41.7193 69.6438C42.3516 68.3506 43.0966 67.1158 43.9457 65.9538C44.2473 66.0182 44.5445 66.0914 44.8372 66.1802C42.6038 69.1429 41.1016 72.5922 40.4531 76.2467C39.8746 79.6712 40.0669 83.1817 41.0161 86.5223C41.9652 89.8628 43.6472 92.9491 45.9393 95.5559C46.0679 95.7047 46.2009 95.8534 46.3363 96Z" fill="white"/>
<path d="M88.5182 62.1815H67.2341L67.0084 55.6294C66.9987 55.3454 67.0505 55.0626 67.1603 54.8006C67.2702 54.5385 67.4354 54.3034 67.6447 54.1115C67.854 53.9195 68.1024 53.7752 68.3727 53.6885C68.643 53.6018 68.9289 53.5748 69.2106 53.6093L81.5966 55.1278H81.5981C83.4343 55.1328 85.1938 55.8663 86.4909 57.1676C87.788 58.4689 88.517 60.232 88.5182 62.0705V62.1815Z" fill="#F2994A"/>
<path d="M79.0318 38.9404H64.1872C63.9897 38.9403 63.7942 38.9792 63.6118 39.0549C63.4294 39.1305 63.2637 39.2413 63.1241 39.3811C62.9845 39.5209 62.8738 39.6868 62.7982 39.8694C62.7227 40.0521 62.6839 40.2478 62.6839 40.4455V55.3081C62.6839 55.5058 62.7227 55.7015 62.7982 55.8841C62.8738 56.0667 62.9845 56.2327 63.1241 56.3725C63.2637 56.5122 63.4294 56.6231 63.6118 56.6987C63.7942 56.7743 63.9897 56.8132 64.1872 56.8132H79.0318C79.2293 56.8132 79.4248 56.7743 79.6072 56.6987C79.7896 56.6231 79.9553 56.5122 80.0949 56.3725C80.2345 56.2327 80.3453 56.0667 80.4208 55.8841C80.4963 55.7015 80.5352 55.5058 80.5351 55.3081V40.4455C80.5352 40.2478 80.4963 40.0521 80.4208 39.8694C80.3453 39.6868 80.2345 39.5209 80.0949 39.3811C79.9553 39.2413 79.7896 39.1305 79.6072 39.0549C79.4248 38.9792 79.2293 38.9403 79.0318 38.9404Z" fill="#CCCCCC"/>
<path d="M75.6886 50.0541L68.6798 51.4206C68.2641 51.5012 67.8334 51.4134 67.4822 51.1764C67.1311 50.9394 66.8882 50.5727 66.8067 50.1566L66.268 47.3866C66.1875 46.9704 66.2752 46.5392 66.5119 46.1876C66.7486 45.836 67.1149 45.5928 67.5304 45.5113L74.5392 44.1448C74.955 44.0642 75.3857 44.152 75.7368 44.389C76.088 44.626 76.3309 44.9927 76.4123 45.4088L76.9511 48.1788C77.0315 48.595 76.9438 49.0262 76.7071 49.3778C76.4705 49.7294 76.1042 49.9726 75.6886 50.0541Z" fill="#3F3D56"/>
<path d="M74.2864 46.7816L68.9375 47.8245C68.8397 47.8436 68.7383 47.823 68.6557 47.7672C68.573 47.7114 68.5159 47.625 68.4968 47.5271C68.4778 47.4291 68.4984 47.3276 68.5541 47.2449C68.6098 47.1621 68.696 47.1049 68.7939 47.0858L74.1427 46.0429C74.2405 46.0239 74.3419 46.0445 74.4246 46.1003C74.5072 46.156 74.5644 46.2424 74.5834 46.3404C74.6025 46.4383 74.5819 46.5398 74.5262 46.6226C74.4705 46.7053 74.3842 46.7625 74.2864 46.7816Z" fill="white"/>
<path d="M73.2467 48.326L70.4801 48.8654C70.3822 48.8845 70.2808 48.8639 70.1982 48.8081C70.1155 48.7523 70.0584 48.666 70.0393 48.568C70.0203 48.4701 70.0409 48.3686 70.0966 48.2858C70.1523 48.203 70.2385 48.1458 70.3364 48.1268L73.103 47.5874C73.1515 47.5779 73.2013 47.5781 73.2497 47.5879C73.298 47.5978 73.344 47.617 73.3849 47.6447C73.4258 47.6723 73.4609 47.7077 73.4882 47.7489C73.5154 47.7901 73.5343 47.8363 73.5438 47.8848C73.5532 47.9333 73.553 47.9831 73.5432 48.0316C73.5333 48.08 73.5141 48.126 73.4865 48.167C73.4589 48.208 73.4235 48.2431 73.3824 48.2704C73.3412 48.2977 73.2951 48.3166 73.2467 48.326Z" fill="white"/>
<path d="M80.5351 40.4455V42.4209H62.6839V40.4455C62.6839 40.2478 62.7227 40.0521 62.7982 39.8694C62.8738 39.6868 62.9845 39.5209 63.1241 39.3811C63.2637 39.2413 63.4294 39.1305 63.6118 39.0549C63.7942 38.9792 63.9897 38.9403 64.1872 38.9404H79.0318C79.2293 38.9403 79.4248 38.9792 79.6072 39.0549C79.7896 39.1305 79.9553 39.2413 80.0949 39.3811C80.2345 39.5209 80.3453 39.6868 80.4208 39.8694C80.4963 40.0521 80.5351 40.2478 80.5351 40.4455Z" fill="#B3B3B3"/>
<path d="M116.182 43.0395C116.079 42.7064 115.904 42.4 115.67 42.1419C115.436 41.8837 115.148 41.6801 114.827 41.5454C114.506 41.4107 114.159 41.3481 113.811 41.3621C113.463 41.3761 113.122 41.4663 112.813 41.6264L92.3902 34.2902L91.4907 39.3983L111.849 45.0033C112.152 45.5059 112.628 45.8797 113.188 46.0539C113.748 46.2281 114.352 46.1907 114.887 45.9486C115.421 45.7065 115.848 45.2767 116.086 44.7405C116.325 44.2044 116.359 43.5991 116.182 43.0395Z" fill="#FFB8B8"/>
<path opacity="0.2" d="M116.182 43.0395C116.079 42.7064 115.904 42.4 115.67 42.1419C115.436 41.8837 115.148 41.6801 114.827 41.5454C114.506 41.4107 114.159 41.3481 113.811 41.3621C113.463 41.3761 113.122 41.4663 112.813 41.6264L92.3902 34.2902L91.4907 39.3983L111.849 45.0033C112.152 45.5059 112.628 45.8797 113.188 46.0539C113.748 46.2281 114.352 46.1907 114.887 45.9486C115.421 45.7065 115.848 45.2767 116.086 44.7405C116.325 44.2044 116.359 43.5991 116.182 43.0395Z" fill="black"/>
<path d="M96.0152 35.221L94.0867 40.2653C94.0318 40.4089 93.9467 40.5389 93.8371 40.6465C93.7275 40.7541 93.596 40.8368 93.4517 40.889C93.3073 40.9411 93.1534 40.9615 93.0004 40.9488C92.8474 40.936 92.699 40.8904 92.5652 40.815L87.8782 38.1738C87.1464 37.8885 86.5575 37.3243 86.2405 36.605C85.9235 35.8856 85.9044 35.0698 86.1873 34.3363C86.4702 33.6028 87.032 33.0116 87.7496 32.6922C88.4671 32.3728 89.282 32.3513 90.0153 32.6325L95.2492 33.7947C95.3991 33.828 95.54 33.8932 95.6624 33.986C95.7847 34.0788 95.8857 34.1969 95.9584 34.3322C96.0311 34.4676 96.0738 34.617 96.0836 34.7704C96.0934 34.9238 96.0701 35.0774 96.0152 35.221Z" fill="#F2994A"/>
<path d="M117.79 47.7103L110.472 51.0406L111.433 54.662C113.288 61.6552 113.78 68.9407 112.883 76.1204L118.233 77.2392L122.668 65.916L121.116 53.0388L117.79 47.7103Z" fill="#F2994A"/>
<path d="M132.148 64.4729C127.34 64.4729 123.422 67.9724 123.232 72.3547H141.065C140.875 67.9724 136.956 64.4729 132.148 64.4729Z" fill="#3F3D56"/>
<path d="M128.405 65.2281C128.155 45.4463 116.903 47.2662 116.903 47.2662C116.903 47.2662 117.113 53.4236 117.214 53.6151C124.385 67.1983 112.551 83.1226 97.4871 80.1931C97.2031 80.1378 96.9303 80.0818 96.6685 80.025C94.7599 79.626 93.0747 78.5141 91.9557 76.9153C90.8368 75.3166 90.3681 73.3512 90.645 71.4188C92.1289 59.4883 84.7484 59.6994 84.7484 59.6994H73.9564L68.352 54.6493C68.1542 54.4711 67.9157 54.3441 67.6575 54.2794C67.3993 54.2147 67.1293 54.2144 66.8709 54.2783C66.6125 54.3423 66.3738 54.4687 66.1755 54.6464C65.9772 54.8242 65.8254 55.0478 65.7334 55.2979L65.0123 57.2572C65.0123 57.2572 54.3682 58.3673 55.2552 68.8023H58.546C58.538 69.0988 58.5499 69.3955 58.5815 69.6904L83.1409 69.4905C84.5805 69.4788 85.8513 70.6467 85.8572 72.0881C85.8587 72.439 85.7894 72.7866 85.6536 73.1101C85.5178 73.4336 85.3182 73.7264 85.0668 73.9709C84.8154 74.2154 84.5173 74.4066 84.1904 74.5331C83.8635 74.6596 83.5144 74.7187 83.1641 74.707L79.2046 74.5749C77.985 80.0144 80.9786 83.6778 84.2772 85.9813C87.3829 88.1186 91.0681 89.2518 94.8366 89.2283H105.593C119.564 89.2283 122.003 77.4612 122.003 77.4612C129.321 74.3529 128.405 65.2281 128.405 65.2281Z" fill="#3F3D56"/>
<path d="M131.483 95.667C138.372 95.667 143.957 90.0756 143.957 83.1782C143.957 76.2809 138.372 70.6895 131.483 70.6895C124.594 70.6895 119.009 76.2809 119.009 83.1782C119.009 90.0756 124.594 95.667 131.483 95.667Z" fill="#3F3D56"/>
<path d="M131.483 86.2392C133.172 86.2392 134.54 84.8688 134.54 83.1782C134.54 81.4877 133.172 80.1173 131.483 80.1173C129.795 80.1173 128.426 81.4877 128.426 83.1782C128.426 84.8688 129.795 86.2392 131.483 86.2392Z" fill="white"/>
<path d="M68.505 95.667C76.435 95.667 82.8635 89.2306 82.8635 81.291C82.8635 73.3514 76.435 66.9151 68.505 66.9151C60.5749 66.9151 54.1464 73.3514 54.1464 81.291C54.1464 89.2306 60.5749 95.667 68.505 95.667Z" fill="#3F3D56"/>
<path d="M68.505 84.8146C70.4486 84.8146 72.0242 83.237 72.0242 81.2911C72.0242 79.3451 70.4486 77.7675 68.505 77.7675C66.5613 77.7675 64.9857 79.3451 64.9857 81.2911C64.9857 83.237 66.5613 84.8146 68.505 84.8146Z" fill="white"/>
<path d="M110.493 52.0246L107.86 44.8645C107.722 44.4914 107.66 44.0948 107.676 43.6975C107.692 43.3001 107.786 42.9098 107.952 42.5488C108.119 42.1878 108.355 41.8631 108.646 41.5934C108.938 41.3237 109.28 41.1141 109.653 40.9768L117.201 38.1946C117.857 37.9528 118.554 37.8427 119.252 37.8706C119.951 37.8985 120.637 38.0638 121.271 38.3571C121.906 38.6504 122.476 39.066 122.95 39.5801C123.424 40.0941 123.793 40.6967 124.034 41.3533C124.252 41.9426 124.363 42.566 124.363 43.1944C124.36 43.9922 124.179 44.7794 123.835 45.4988C123.49 46.2181 122.989 46.8515 122.369 47.3529C121.922 47.7125 121.418 47.9966 120.879 48.1941L110.493 52.0246Z" fill="#3F3D56"/>
<path d="M124.252 43.1943C124.251 43.9759 124.075 44.7474 123.738 45.4521C123.4 46.1568 122.909 46.7767 122.3 47.2662C121.366 47.0196 120.498 46.5724 119.754 45.9556C119.01 45.3389 118.41 44.5674 117.994 43.6948C117.578 42.8222 117.357 41.8694 117.347 40.9026C117.336 39.9359 117.535 38.9784 117.932 38.0967C118.692 37.9311 119.48 37.9381 120.238 38.1173C120.995 38.2965 121.703 38.6433 122.309 39.1322C122.915 39.6211 123.405 40.2398 123.741 40.9427C124.077 41.6456 124.251 42.415 124.252 43.1943Z" fill="#F2994A"/>
<path d="M57.1401 70.2455C58.8547 70.2455 60.2446 68.5556 60.2446 66.4711C60.2446 64.3866 58.8547 62.6967 57.1401 62.6967C55.4255 62.6967 54.0355 64.3866 54.0355 66.4711C54.0355 68.5556 55.4255 70.2455 57.1401 70.2455Z" fill="#F2994A"/>
<path d="M98.1781 79.8315H100.897L102.19 72.7718L98.1776 72.7721L98.1781 79.8315Z" fill="#FFB8B8"/>
<path d="M97.4846 78.9428L102.839 78.9426H102.839C103.287 78.9426 103.731 79.0309 104.145 79.2026C104.558 79.3743 104.935 79.6259 105.251 79.9431C105.568 80.2603 105.82 80.6369 105.991 81.0514C106.163 81.4658 106.251 81.9101 106.251 82.3587V82.4697L97.4848 82.47L97.4846 78.9428Z" fill="#2F2E41"/>
<path d="M101.334 76.934C101.302 76.934 101.27 76.9325 101.238 76.9294L97.476 76.6551C97.3238 76.641 97.1769 76.5921 97.0467 76.5121C96.9164 76.4322 96.8062 76.3233 96.7246 76.194C96.6429 76.0646 96.5921 75.9183 96.5759 75.7661C96.5597 75.614 96.5787 75.4602 96.6312 75.3165L101.667 63.9902C101.702 63.8892 101.717 63.7818 101.71 63.6749C101.702 63.5679 101.673 63.4637 101.623 63.3688C101.573 63.2727 101.504 63.1882 101.42 63.1208C101.335 63.0535 101.237 63.0048 101.133 62.978C98.7649 62.3584 92.69 60.7084 87.4313 58.7778C85.1783 57.9507 83.7593 56.7554 83.2138 55.2251C82.4946 53.2076 83.5585 51.3677 83.6042 51.2905L83.6399 51.23L88.5882 51.6803L93.9527 52.1371L105.709 58.4487C106.694 58.9821 107.442 59.8673 107.804 60.9282C108.167 61.9891 108.117 63.1477 107.664 64.1734L102.244 76.3418C102.166 76.5181 102.038 76.6678 101.877 76.7729C101.715 76.878 101.526 76.9339 101.334 76.934Z" fill="#2F2E41"/>
<path d="M89.4486 29.2718C92.4566 29.2718 94.8951 26.8304 94.8951 23.8187C94.8951 20.8071 92.4566 18.3657 89.4486 18.3657C86.4406 18.3657 84.0021 20.8071 84.0021 23.8187C84.0021 26.8304 86.4406 29.2718 89.4486 29.2718Z" fill="#FFB8B8"/>
<path d="M96.6258 80.4975H99.3445L100.638 73.4379L96.6254 73.4381L96.6258 80.4975Z" fill="#FFB8B8"/>
<path d="M95.9323 79.6089L101.286 79.6087H101.287C101.735 79.6087 102.178 79.697 102.592 79.8687C103.006 80.0404 103.382 80.292 103.699 80.6092C104.016 80.9264 104.267 81.303 104.439 81.7175C104.61 82.1319 104.699 82.5761 104.699 83.0247V83.1358L95.9325 83.1361L95.9323 79.6089Z" fill="#2F2E41"/>
<path d="M99.7815 77.6001C99.7498 77.6001 99.718 77.5985 99.6861 77.5955L95.9237 77.3212C95.7715 77.3071 95.6246 77.2582 95.4944 77.1782C95.3641 77.0982 95.2539 76.9894 95.1723 76.8601C95.0906 76.7307 95.0398 76.5843 95.0236 76.4322C95.0074 76.2801 95.0264 76.1262 95.0789 75.9826L100.114 64.6562C100.15 64.5553 100.165 64.4479 100.157 64.341C100.15 64.234 100.12 64.1298 100.071 64.0348C100.021 63.9387 99.9518 63.8543 99.8673 63.7869C99.7828 63.7196 99.685 63.6709 99.5803 63.6441C97.2126 63.0245 91.1377 61.3745 85.879 59.4439C83.626 58.6168 82.207 57.4214 81.6615 55.8911C80.9423 53.8736 82.0062 52.0337 82.0519 51.9565L82.0876 51.896L87.0359 52.3464L92.4004 52.8032L104.156 59.1148C105.141 59.6481 105.89 60.5334 106.252 61.5943C106.614 62.6552 106.564 63.8138 106.112 64.8394L100.692 77.0079C100.614 77.1842 100.486 77.3339 100.324 77.4389C100.163 77.544 99.9742 77.6 99.7815 77.6001Z" fill="#2F2E41"/>
<path d="M91.1284 32.364L85.3628 30.3658C85.3628 30.3658 81.7433 33.1499 83.4821 40.0567C84.3898 43.6209 84.1254 47.3831 82.7281 50.7849C82.5598 51.2057 82.3659 51.6159 82.1473 52.0129C82.1473 52.0129 88.5782 59.7837 94.5656 54.0111L92.2372 42.799C92.2372 42.799 95.8961 35.3613 91.1284 32.364Z" fill="#F2994A"/>
<path d="M90.1248 29.4573C89.3497 28.2956 88.7379 26.6848 89.5914 25.5795C90.4338 24.4884 92.0955 24.6492 93.3857 24.1664C95.1828 23.494 96.225 21.3802 95.9 19.4871C95.5749 17.5941 94.0571 16.0248 92.249 15.3827C90.4409 14.7406 88.402 14.9495 86.6313 15.6889C84.4516 16.5991 82.5819 18.3599 81.7978 20.5903C81.0137 22.8207 81.4329 25.4988 83.0594 27.2131C84.8032 29.0511 87.5401 29.5409 90.0719 29.5112" fill="#2F2E41"/>
<path d="M85.0584 19.5479C84.0817 20.344 82.5914 19.9904 81.5429 19.2917C80.4943 18.593 79.6435 17.5981 78.509 17.0502C76.509 16.0845 74.0909 16.7265 72.1443 17.7963C70.1978 18.866 68.4723 20.344 66.4162 21.1835C64.36 22.023 61.7363 22.0644 60.1794 20.4793C59.7962 21.5907 59.7649 22.7934 60.0897 23.9233C60.4144 25.0531 61.0795 26.0552 61.9941 26.7927C62.9086 27.5302 64.0282 27.9672 65.2 28.0441C66.3718 28.121 67.5388 27.834 68.5417 27.2224C70.7946 25.8484 72.039 22.9677 74.5659 22.2093C75.9641 21.7897 77.4656 22.1276 78.8788 22.4937C80.292 22.8598 81.7655 23.2554 83.1917 22.9437C84.6179 22.6321 85.9519 21.3489 85.7704 19.8987L85.0584 19.5479Z" fill="#2F2E41"/>
<path d="M115.911 42.8174C115.768 42.4996 115.557 42.2171 115.293 41.9899C115.028 41.7626 114.718 41.5961 114.382 41.5021C114.047 41.4081 113.695 41.3888 113.351 41.4457C113.008 41.5026 112.681 41.6342 112.394 41.8312L91.2228 37.0739L90.9597 42.2541L111.853 45.3015C112.215 45.7628 112.734 46.0749 113.311 46.1786C113.889 46.2823 114.484 46.1705 114.984 45.8643C115.484 45.5581 115.855 45.0788 116.026 44.5172C116.197 43.9557 116.156 43.3508 115.911 42.8174Z" fill="#FFB8B8"/>
<path d="M94.9348 37.5498L93.6426 42.7939C93.6058 42.9431 93.5374 43.0826 93.4419 43.203C93.3464 43.3233 93.2262 43.4216 93.0893 43.4912C92.9525 43.5608 92.8022 43.6001 92.6489 43.6063C92.4955 43.6125 92.3426 43.5856 92.2005 43.5273L87.2238 41.4853C86.462 41.293 85.8074 40.806 85.4038 40.1311C85.0002 39.4563 84.8804 38.6486 85.0709 37.8855C85.2613 37.1223 85.7463 36.4659 86.4195 36.0604C87.0927 35.6548 87.8991 35.5332 88.6618 35.7223L93.9989 36.229C94.1517 36.2436 94.2996 36.291 94.4324 36.3679C94.5653 36.4448 94.6801 36.5495 94.7689 36.6749C94.8577 36.8002 94.9185 36.9433 94.9471 37.0942C94.9757 37.2452 94.9715 37.4006 94.9348 37.5498V37.5498Z" fill="#F2994A"/>
<path d="M113.466 46.9332C114.323 46.9332 115.018 46.2374 115.018 45.379C115.018 44.5207 114.323 43.8249 113.466 43.8249C112.608 43.8249 111.913 44.5207 111.913 45.379C111.913 46.2374 112.608 46.9332 113.466 46.9332Z" fill="#F2994A"/>
<rect opacity="0.2" x="28" y="15" width="26" height="9" rx="4.5" fill="#F2994A"/>
<rect opacity="0.2" x="116" y="22" width="26" height="9" rx="4.5" fill="#F2994A"/>
<rect opacity="0.2" x="130" y="10" width="12" height="9" rx="4.5" fill="#F2994A"/>
<rect opacity="0.2" x="65" width="16" height="9" rx="4.5" fill="#F2994A"/>
</g>
<defs>
<clipPath id="clip0_305_3164">
<rect width="144" height="96" fill="white"/>
</clipPath>
</defs>
</svg>
