<svg width="19" height="19" viewBox="0 0 19 19" fill="none" xmlns="http://www.w3.org/2000/svg">
<g clip-path="url(#clip0_303_2348)">
<path d="M17.8552 13.5802C17.8271 6.71771 12.0052 0.923961 5.14271 0.895836L0.980206 17.7708L17.8552 13.5802Z" fill="#F6DA77"/>
<path d="M15.6615 14.1146L16.2521 14.0021C15.9708 8.65834 12.1458 3.06146 4.72083 2.49896L4.63646 3.06146C10.3177 3.79271 14.9583 8.40521 15.6615 14.1146Z" fill="#860D16"/>
<path d="M16.224 14.0021L17.8271 13.6083C17.8552 6.74584 12.0052 0.895836 5.08646 0.895836L4.69271 2.49896C11.3021 3.11771 15.6052 7.44896 16.224 14.0021Z" fill="#C98E52"/>
<path d="M4.13021 12.0615C3.65208 12.0615 3.23021 11.8927 2.89271 11.5552C2.75208 11.4146 2.75208 11.1896 2.89271 11.0771C3.03333 10.9365 3.25833 10.9365 3.37083 11.0771C3.76458 11.4708 4.46771 11.4708 4.86146 11.0771C5.05833 10.8802 5.17083 10.6271 5.17083 10.3458C5.17083 10.0646 5.05833 9.81146 4.86146 9.61459C4.72083 9.47396 4.72083 9.24896 4.86146 9.13646C5.00208 8.99584 5.22708 8.99584 5.33958 9.13646C5.67708 9.47396 5.84583 9.89584 5.84583 10.374C5.84583 10.8521 5.67708 11.274 5.33958 11.6115C5.03021 11.8646 4.58021 12.0615 4.13021 12.0615ZM11.1896 6.49271V6.63334C11.1615 6.71771 11.1333 6.77396 11.049 6.83021C10.9646 6.88646 10.8802 6.88646 10.824 6.85834C10.599 6.80209 10.374 6.85834 10.1771 6.97084C9.98021 7.08334 9.83958 7.28021 9.78333 7.50521C9.67083 7.95521 9.98021 8.43334 10.4302 8.54584C10.599 8.57396 10.7115 8.77084 10.6552 8.91146C10.6271 9.08021 10.4583 9.19271 10.2896 9.13646C9.72708 8.99584 9.30521 8.57396 9.16458 8.01146C9.10833 7.78646 9.10833 7.56146 9.16458 7.36459C9.24896 6.97084 9.50208 6.66146 9.83958 6.43646C10.1771 6.21146 10.5708 6.15521 10.9646 6.23959C11.049 6.29584 11.1615 6.38021 11.1896 6.49271ZM12.6802 14.649H12.5396C12.4552 14.6208 12.399 14.5927 12.3708 14.5083C12.3427 14.4521 12.3146 14.3677 12.3427 14.2833C12.399 14.0865 12.3708 13.8615 12.2583 13.6646C12.1458 13.4677 11.9771 13.3271 11.7521 13.2708C11.3302 13.1583 10.8521 13.4396 10.7396 13.8333C10.7115 13.974 10.5146 14.0865 10.374 14.0302C10.2052 13.974 10.1208 13.8333 10.1771 13.6646C10.3177 13.1583 10.7396 12.7365 11.274 12.6521C11.4708 12.624 11.6958 12.624 11.8927 12.6802C12.2583 12.7646 12.5677 13.0177 12.7365 13.3271C12.9333 13.6646 12.9615 14.0302 12.8771 14.3958C12.8771 14.5365 12.7927 14.6208 12.6802 14.649Z" fill="#83BF4F"/>
<path d="M10.7677 10.5146C11.1615 11.6677 10.5427 12.9052 9.36146 13.299C8.18021 13.6927 6.91458 13.074 6.54896 11.9208C6.15521 10.7677 6.77396 9.53021 7.95521 9.13646C9.10833 8.74271 10.374 9.36146 10.7677 10.5146ZM14.2833 10.7396C14.5083 11.4427 14.1427 12.174 13.4396 12.4271C12.7365 12.6521 11.9771 12.2865 11.7521 11.5833C11.5271 10.8802 11.8927 10.149 12.5958 9.89583C13.2708 9.67083 14.0302 10.0365 14.2833 10.7396ZM8.48958 5.67708C8.79896 6.60521 8.29271 7.64583 7.33646 7.95521C6.38021 8.26458 5.33958 7.75833 5.03021 6.83021C4.72083 5.90208 5.22708 4.86146 6.18333 4.55208C7.13958 4.24271 8.18021 4.74896 8.48958 5.67708ZM10.0083 15.5208L7.28021 16.1958C7.02708 15.4646 7.53333 14.5927 8.26458 14.3958C9.16458 14.1708 9.75521 14.8177 10.0083 15.5208ZM5.84583 13.5521C6.18333 14.5083 5.64896 15.5771 4.66458 15.8865C3.68021 16.224 2.61146 15.6896 2.27396 14.7052C1.93646 13.749 2.47083 12.6802 3.45521 12.3708C4.43958 12.0615 5.50833 12.5958 5.84583 13.5521Z" fill="#B21725"/>
<path d="M4.69271 2.49896C6.18333 2.52709 7.67396 2.80834 9.08021 3.37084C10.4865 3.90521 11.8083 4.74896 12.8771 5.84584C13.9458 6.91459 14.7896 8.23646 15.3521 9.64271C15.9146 11.049 16.1958 12.5396 16.224 14.0302C15.9708 12.5677 15.5771 11.1333 14.9583 9.81146C14.3396 8.48959 13.524 7.25209 12.4833 6.23959C11.4708 5.19896 10.2333 4.38334 8.91146 3.79271C7.58958 3.14584 6.15521 2.75209 4.69271 2.49896Z" fill="#E0A763"/>
<path d="M5.05664 4.11221L5.61352 3.55534L6.17039 4.11221L5.61352 4.66909L5.05664 4.11221ZM8.69208 5.68946L9.24896 5.13259L9.80583 5.68946L9.24896 6.24634L8.69208 5.68946ZM3.96371 7.77184L4.52058 7.21496L5.07746 7.77184L4.52058 8.32871L3.96371 7.77184ZM5.88746 9.3713L6.44433 8.81443L7.00121 9.3713L6.44433 9.92818L5.88746 9.3713ZM10.8929 9.44302L11.4497 8.88615L12.0066 9.44302L11.4497 9.9999L10.8929 9.44302ZM14.1213 13.423L14.6782 12.8661L15.2351 13.423L14.6782 13.9799L14.1213 13.423ZM5.85061 12.8917L6.40749 12.3348L6.96436 12.8917L6.40749 13.4486L5.85061 12.8917ZM6.24914 14.9311L6.80602 14.3742L7.36289 14.9311L6.80602 15.4879L6.24914 14.9311ZM1.55339 16.7136L2.11027 16.1567L2.66714 16.7136L2.11027 17.2705L1.55339 16.7136ZM4.26239 5.20684L4.68005 4.78918L5.09771 5.20684L4.68005 5.62449L4.26239 5.20684ZM7.80108 8.17824L8.21874 7.76059L8.63639 8.17824L8.21874 8.5959L7.80108 8.17824ZM11.6044 8.19568L12.0221 7.77802L12.4397 8.19568L12.0221 8.61334L11.6044 8.19568ZM4.11221 10.5045L4.52986 10.0868L4.94752 10.5045L4.52986 10.9221L4.11221 10.5045ZM2.40333 12.174L2.82099 11.7563L3.23864 12.1737L2.82099 12.5913L2.40333 12.174ZM1.74802 15.6572L2.16568 15.2396L2.58333 15.6572L2.16568 16.0749L1.74802 15.6572ZM5.36096 15.8825L5.77861 15.4649L6.19627 15.8828L5.77861 16.3002L5.36096 15.8825ZM8.98964 13.9306L9.4073 13.513L9.82496 13.9306L9.4073 14.3483L8.98964 13.9306ZM10.7514 14.6478L11.1691 14.2302L11.5867 14.6478L11.1691 15.0652L10.7514 14.6478ZM13.0953 13.0374L13.513 12.62L13.9306 13.0377L13.513 13.4553L13.0953 13.0374Z" fill="#FFAB41"/>
</g>
<defs>
<clipPath id="clip0_303_2348">
<rect width="18" height="18" fill="white" transform="translate(0.333332 0.333336)"/>
</clipPath>
</defs>
</svg>
