<svg width="19" height="19" viewBox="0 0 19 19" fill="none" xmlns="http://www.w3.org/2000/svg">
<g clip-path="url(#clip0_303_2474)">
<path d="M16.4208 2.72396C15.8302 1.23334 14.1146 0.502088 12.5958 1.09271C11.0771 1.68334 10.3458 3.37084 10.9365 4.86146C11.5552 6.35209 13.2708 7.08334 14.7896 6.49271C16.3083 5.90209 17.0396 4.21459 16.4208 2.72396" fill="#64892F"/>
<path d="M16.2521 2.80834C15.6896 1.40209 14.0583 0.727085 12.6521 1.28959C11.2177 1.85209 10.5427 3.42709 11.1052 4.83334C11.6677 6.23959 13.299 6.91459 14.7052 6.35209C16.1396 5.78959 16.8427 4.18646 16.2521 2.80834" fill="#FDFFB8"/>
<path d="M12.9052 1.31771C12.9896 1.23334 14.5083 1.20521 14.5365 1.37396C14.5646 1.43021 14.6208 1.45834 14.6208 1.51459C14.5927 1.71146 13.7771 3.48334 13.7771 3.48334C13.749 3.48334 13.6646 3.37084 13.6083 3.45521C13.5521 3.51146 12.7927 1.54271 12.8208 1.51459C12.8771 1.45834 12.849 1.37396 12.9052 1.31771V1.31771ZM14.4802 6.29584C14.3958 6.38021 12.8771 6.40834 12.849 6.23959C12.8208 6.18334 12.7646 6.15521 12.7646 6.09896C12.7927 5.90209 13.6083 4.13021 13.6083 4.13021C13.6365 4.13021 13.7208 4.24271 13.7771 4.15834C13.8333 4.10209 14.5927 6.07084 14.5646 6.09896C14.5083 6.15521 14.5365 6.23959 14.4802 6.29584V6.29584ZM16.224 3.03334C16.3365 3.11771 16.3365 4.58021 16.1677 4.63646C16.1115 4.66459 16.0833 4.72084 16.0271 4.72084C15.8021 4.69271 14.0021 3.90521 14.0021 3.90521C14.0021 3.87709 14.1146 3.79271 14.0302 3.73646C13.974 3.68021 15.999 2.94896 16.0271 2.97709C16.0833 3.00521 16.1677 2.97709 16.224 3.03334V3.03334ZM11.1615 4.55209C11.049 4.46771 11.049 3.00521 11.2177 2.94896C11.274 2.92084 11.3021 2.86459 11.3583 2.86459C11.5833 2.89271 13.3833 3.68021 13.3833 3.68021C13.3833 3.70834 13.2708 3.79271 13.3552 3.84896C13.4115 3.90521 11.3865 4.63646 11.3583 4.60834C11.3021 4.60834 11.2177 4.60834 11.1615 4.55209V4.55209ZM11.3865 2.63959C11.3583 2.52709 12.4271 1.45834 12.5677 1.54271C12.624 1.57084 12.7083 1.54271 12.7365 1.57084C12.849 1.73959 13.5802 3.53959 13.5802 3.53959C13.5521 3.53959 13.4396 3.53959 13.4396 3.62396C13.4677 3.70834 11.4708 2.83646 11.4708 2.80834C11.4708 2.75209 11.3865 2.69584 11.3865 2.63959V2.63959ZM16.0552 5.00209C16.0833 5.11459 15.0146 6.15521 14.874 6.09896C14.8177 6.07084 14.7333 6.09896 14.7052 6.07084C14.5927 5.90209 13.8615 4.10209 13.8615 4.10209C13.8896 4.10209 14.0021 4.10209 14.0021 3.98959C13.974 3.90521 15.9708 4.77709 15.9708 4.80521C15.9708 4.88959 16.0271 4.94584 16.0552 5.00209V5.00209ZM14.9021 1.51459C15.0146 1.48646 16.1115 2.52709 16.0271 2.66771C15.999 2.72396 16.0271 2.78021 15.9708 2.83646C15.8021 2.94896 13.9458 3.65209 13.9458 3.65209C13.9458 3.62396 13.9458 3.51146 13.8333 3.51146C13.749 3.53959 14.649 1.59896 14.6771 1.59896C14.7896 1.59896 14.8458 1.54271 14.9021 1.51459V1.51459ZM12.4833 6.07084C12.3708 6.09896 11.274 5.05834 11.3583 4.91771C11.3865 4.86146 11.3583 4.80521 11.4146 4.74896C11.5833 4.63646 13.4396 3.93334 13.4396 3.93334C13.4396 3.96146 13.4396 4.07396 13.5521 4.07396C13.6365 4.04584 12.7365 5.98646 12.7083 5.98646C12.5958 5.98646 12.5396 6.04271 12.4833 6.07084" fill="#CED74D"/>
<path d="M7.1677 2.86459C6.46458 2.16146 5.28333 2.16146 4.5802 2.86459L2.02083 5.36771L2.41458 5.76146L4.97395 3.25834C5.4802 2.75209 6.29583 2.75209 6.80208 3.25834L12.4271 8.79896L12.8208 8.40521L7.1677 2.86459Z" fill="#C10259"/>
<path opacity="0.8" d="M13.749 3.82084H6.68958C8.01146 6.88646 4.01771 12.4271 8.65833 13.3552C10.0927 13.8615 10.0083 15.0146 9.53021 16.1396C9.02396 17.3208 7.87083 17.5177 7.84271 17.5458C7.81458 17.574 7.78646 17.6302 7.78646 17.6865C7.78646 17.7427 7.81458 17.799 7.87083 17.799H12.5396C12.5677 17.799 12.5958 17.7427 12.624 17.6865C12.624 17.6302 12.5958 17.5458 12.5677 17.5458C12.5677 17.5458 11.3865 17.3208 10.8802 16.1396C10.4021 15.0427 10.3458 13.8615 11.7521 13.3552C16.4208 12.399 12.4271 6.85834 13.749 3.82084V3.82084ZM10.2333 12.9615C4.35521 12.9615 8.48958 7.05521 7.28021 4.04584H13.1865C11.9771 7.05521 16.1115 12.9615 10.2333 12.9615Z" fill="#A1B8C7"/>
<g opacity="0.8">
<path opacity="0.8" d="M7.42083 9.41771C7.25208 11.1333 7.56146 12.5115 10.2052 12.5115C12.399 12.5115 12.9896 11.5552 13.0177 10.2333C11.274 10.5708 9.69896 9.05208 7.42083 9.41771" fill="#F65500"/>
<path opacity="0.8" d="M13.0458 10.2615C13.074 9.27708 12.7927 8.09583 12.6521 6.99896C11.1333 7.05521 9.72709 5.95833 7.84271 6.07083C7.81459 7.13958 7.53334 8.34896 7.42084 9.41771C9.69896 9.05208 11.274 10.5708 13.0458 10.2615Z" fill="#FCB334"/>
</g>
</g>
<defs>
<clipPath id="clip0_303_2474">
<rect width="18" height="18" fill="white" transform="translate(0.333328 0.333336)"/>
</clipPath>
</defs>
</svg>
