<svg width="19" height="19" viewBox="0 0 19 19" fill="none" xmlns="http://www.w3.org/2000/svg">
<g clip-path="url(#clip0_303_2325)">
<path d="M17.3804 14.3154C17.3804 15.0159 16.9803 15.6565 16.3479 15.9578C15.1538 16.5266 12.8786 17.2931 9.28812 17.2931C5.69765 17.2931 3.42244 16.5266 2.2284 15.9578C1.59594 15.6565 1.19582 15.0159 1.19582 14.3154C1.19582 13.309 2.01166 12.4932 3.01804 12.4932H15.5582C16.5646 12.4932 17.3804 13.309 17.3804 14.3154Z" fill="#E59328"/>
<path d="M17.3101 11.5395C17.3101 10.8389 16.91 10.1983 16.2775 9.8971C15.0835 9.3283 12.8082 8.56179 9.21777 8.56179C5.6273 8.56179 3.35209 9.3283 2.15805 9.8971C1.52559 10.1983 1.12547 10.8389 1.12547 11.5395C1.12547 11.5496 1.12607 11.5596 1.12625 11.5696C1.12607 11.5797 1.12547 11.5897 1.12547 11.5998C1.12547 12.3003 1.52559 12.9409 2.15805 13.2421C3.35209 13.8109 5.6273 14.5774 9.21777 14.5774C12.8082 14.5774 15.0835 13.8109 16.2775 13.2421C16.91 12.9409 17.3101 12.3003 17.3101 11.5998C17.3101 11.5897 17.3095 11.5797 17.3093 11.5696C17.3095 11.5595 17.3101 11.5495 17.3101 11.5395Z" fill="#7A2F18"/>
<path d="M9.39799 13.3303C13.5029 13.3303 16.8306 12.1968 16.8306 10.7985C16.8306 9.40024 13.5029 8.26672 9.39799 8.26672C5.29308 8.26672 1.96539 9.40024 1.96539 10.7985C1.96539 12.1968 5.29308 13.3303 9.39799 13.3303Z" fill="#DB1D1D"/>
<path d="M9.39799 12.3665C13.5029 12.3665 16.8306 11.233 16.8306 9.83469C16.8306 8.43643 13.5029 7.30292 9.39799 7.30292C5.29308 7.30292 1.96539 8.43643 1.96539 9.83469C1.96539 11.233 5.29308 12.3665 9.39799 12.3665Z" fill="#FF473E"/>
<path d="M17.4544 8.23984C16.6049 7.76825 15.3632 7.5827 14.2717 7.58319C13.6763 7.58347 13.0701 7.64559 12.5019 7.76178C12.0592 7.85227 11.6266 7.96678 11.1713 8.0257C11.095 8.02886 11.0186 8.02957 10.9423 8.02784C10.8899 8.01973 10.8378 8.01013 10.786 7.99905C10.5973 7.93566 10.4181 7.86145 10.2352 7.79054C9.94203 7.67695 9.63508 7.58814 9.31934 7.50437C8.76391 7.35703 8.17891 7.28679 7.58357 7.25166C6.45934 7.18532 5.30035 7.35478 4.30078 7.69523C4.14072 7.70844 3.98282 7.74074 3.83043 7.79145C2.81009 8.13173 1.94595 8.67486 1.33905 9.30918C1.21016 9.4439 1.09605 9.58477 0.998101 9.73028C0.784597 10.0475 0.593066 10.3738 0.782453 10.7246C1.13704 11.3814 2.19675 11.621 3.1716 11.4669C3.844 11.3606 4.36832 11.0693 4.89563 10.7938C5.02782 10.7311 5.16464 10.6739 5.30896 10.6249C5.32499 10.6215 5.34099 11.2161 5.35712 11.213C5.49234 11.2942 5.61967 11.3809 5.75787 11.46C5.99328 11.5949 6.24514 11.7249 6.51296 11.8314C7.06143 12.0496 7.71741 12.1894 8.36277 12.1855C9.02213 12.1814 9.65185 12.0432 10.1721 11.7794C10.4493 11.6388 10.6767 11.4729 10.8523 11.271C10.9166 11.1971 10.9722 11.1206 11.033 11.046C11.0827 11.0546 11.4591 10.5812 11.5904 10.6436C11.919 10.8165 12.2398 10.9983 12.596 11.1457C13.0884 11.3497 13.668 11.4721 14.2525 11.4732C15.378 11.4752 16.4397 11.0488 17.2211 10.5463C17.6243 10.2871 18.0014 9.94291 18.1123 9.57243C18.2592 9.08162 18.0497 8.5703 17.4544 8.23984ZM5.92968 9.00832C6.16475 8.95787 6.40219 8.9191 6.6411 8.89216C6.9707 8.87149 7.30126 8.87149 7.63086 8.89216C7.9403 8.92714 8.24278 8.98047 8.53683 9.05275C8.77006 9.12644 8.98919 9.81297 9.21239 9.89788C8.98627 10.073 8.85883 10.282 8.6726 10.4751C8.66315 10.4815 8.65337 10.4878 8.64364 10.494C8.61946 10.5036 8.59512 10.5128 8.57062 10.5216C8.52483 10.5309 8.47882 10.5391 8.43263 10.5461C8.37345 10.5477 8.31423 10.5476 8.25505 10.5459C8.16678 10.5328 8.07903 10.5164 7.99198 10.4967C7.8521 10.4505 7.71489 10.3965 7.581 10.3351C7.33558 10.1975 7.11357 10.0437 6.85731 9.9137C6.58056 9.77339 6.26637 9.06471 5.92968 9.00832ZM15.1628 9.56006C14.9839 9.64436 14.7974 9.72023 14.6001 9.78422C14.5125 9.8041 14.4242 9.82063 14.3354 9.83378C14.2896 9.8349 14.2437 9.83499 14.1979 9.83403C14.1525 9.82685 14.1072 9.81855 14.0622 9.80914C13.9054 9.7557 13.7579 9.69225 13.6149 9.62366C13.4463 9.53432 13.2796 9.442 13.1087 9.35383C13.3423 9.30616 13.5777 9.26432 13.8195 9.23553C14.1272 9.21668 14.4358 9.21687 14.7435 9.23609C14.9956 9.26504 15.2459 9.30767 15.4934 9.36378C15.389 9.43314 15.2779 9.49801 15.1628 9.56006Z" fill="#00B89C"/>
<path d="M4.37792 12.0063C3.90609 11.2431 2.99909 9.83617 1.8659 8.37152C0.237672 8.64785 13.2143 6.46057 13.2143 6.46057C16.838 6.84226 17.3167 8.63509 17.3185 9.54915C17.3191 9.84172 17.0682 10.0719 16.7763 10.0513C9.01313 9.50159 6.10648 11.2345 5.14911 12.115C4.91584 12.3294 4.54456 12.2759 4.37792 12.0063Z" fill="#FECB21"/>
<path d="M9.21777 1.23288C4.8867 1.23288 1.12547 3.96832 1.12547 7.26323C1.12547 9.02002 4.7485 10.4442 9.21777 10.4442C13.687 10.4442 17.3101 9.02002 17.3101 7.26323C17.3101 4.06152 13.5488 1.23288 9.21777 1.23288Z" fill="#E59328"/>
<path d="M4.1429 5.01994L4.48255 5.75587C4.5018 5.79758 4.50369 5.84523 4.4878 5.88834C4.47192 5.93144 4.43957 5.96647 4.39786 5.98572C4.3736 5.9968 4.34713 6.00217 4.32048 6.00143C4.29382 6.0007 4.26769 5.99387 4.24408 5.98147L3.52809 5.60168C3.31019 5.48608 3.22722 5.21573 3.34282 4.99783C3.45841 4.77993 3.72876 4.69696 3.94666 4.81256C4.03308 4.85826 4.10204 4.93114 4.1429 5.01994ZM11.3025 2.41564C11.0846 2.30005 10.8143 2.38302 10.6987 2.60091C10.5831 2.81881 10.666 3.08916 10.8839 3.20476L11.5999 3.58455C11.6235 3.59695 11.6497 3.60378 11.6763 3.60451C11.703 3.60525 11.7294 3.59988 11.7537 3.5888C11.7954 3.56955 11.8278 3.53452 11.8437 3.49142C11.8595 3.44831 11.8576 3.40066 11.8384 3.35895L11.4988 2.62303C11.4579 2.53424 11.3889 2.46136 11.3025 2.41564ZM7.2736 3.32067C7.13213 3.11859 6.85363 3.06948 6.65155 3.21098C6.44947 3.35245 6.40036 3.63096 6.54186 3.83303L7.00673 4.49696C7.02211 4.51874 7.04227 4.53671 7.06567 4.54949C7.08908 4.56227 7.11509 4.56952 7.14173 4.57068C7.18764 4.57251 7.23239 4.55603 7.26614 4.52486C7.2999 4.4937 7.31989 4.4504 7.32173 4.4045L7.35404 3.59464C7.35801 3.49696 7.32975 3.40069 7.2736 3.32067ZM15.483 5.29515C15.5899 5.06196 15.4875 4.7863 15.2543 4.67946C15.0211 4.57258 14.7455 4.67499 14.6386 4.90815L14.3766 5.47993C14.3621 5.51143 14.3571 5.54641 14.3621 5.5807C14.367 5.61498 14.3818 5.64711 14.4045 5.67324C14.4273 5.69936 14.4571 5.71837 14.4903 5.72799C14.5236 5.73761 14.559 5.73742 14.5921 5.72746L15.1945 5.54641C15.317 5.50897 15.4254 5.42076 15.483 5.29515ZM8.85757 7.18139C8.61509 7.13614 8.38183 7.296 8.33655 7.53847C8.29131 7.78094 8.45116 8.0142 8.69363 8.05948L9.49038 8.20819C9.51661 8.21298 9.54358 8.21169 9.56924 8.20444C9.59489 8.19719 9.61854 8.18416 9.63839 8.16636C9.65526 8.1511 9.66895 8.13266 9.6787 8.11211C9.68844 8.09155 9.69404 8.06928 9.69517 8.04656C9.6963 8.02384 9.69295 8.00112 9.6853 7.9797C9.67765 7.95828 9.66585 7.93857 9.65059 7.92171L9.10675 7.32075C9.04126 7.24818 8.95368 7.1992 8.85757 7.18139ZM13.1519 7.85828C13.2507 8.08434 13.5139 8.18752 13.74 8.08877C13.9661 7.99002 14.0692 7.72673 13.9705 7.50068L13.646 6.75796C13.6352 6.73357 13.619 6.71197 13.5986 6.69482C13.5782 6.67766 13.5541 6.66541 13.5282 6.659C13.5061 6.65362 13.4832 6.65264 13.4607 6.65613C13.4382 6.65961 13.4166 6.66749 13.3972 6.67932C13.3778 6.69114 13.3609 6.70668 13.3474 6.72504C13.334 6.7434 13.3243 6.76423 13.3189 6.78634L13.1272 7.57384C13.104 7.6688 13.1127 7.76874 13.1519 7.85828ZM6.44307 7.63634C6.47141 7.38849 6.29345 7.16462 6.04559 7.13628C5.79774 7.10794 5.57387 7.28591 5.54553 7.53376L5.45247 8.34812C5.45016 8.36891 5.45232 8.38995 5.45879 8.40985C5.46527 8.42974 5.47591 8.44802 5.49002 8.46346C5.51622 8.49197 5.55266 8.50891 5.59134 8.51055C5.63002 8.51219 5.66777 8.4984 5.69628 8.47222L6.29988 7.9177C6.37991 7.8442 6.43075 7.7443 6.44307 7.63634ZM10.5366 6.16484C10.7681 6.24989 11.0248 6.13113 11.1098 5.89959C11.1949 5.66805 11.0761 5.41141 10.8446 5.32637L10.0837 5.04695C10.0587 5.03786 10.0319 5.03464 10.0054 5.03751C9.97885 5.04039 9.95335 5.04929 9.93082 5.06354C9.89209 5.08826 9.86478 5.12734 9.85487 5.1722C9.84497 5.21706 9.8533 5.26402 9.87801 5.30274L10.3141 5.98593C10.3666 6.06839 10.4448 6.13126 10.5366 6.16484Z" fill="#FFCD7D"/>
</g>
<defs>
<clipPath id="clip0_303_2325">
<rect width="18" height="18" fill="white" transform="translate(0.333336 0.333336)"/>
</clipPath>
</defs>
</svg>
